<?xml version="1.0" encoding="UTF-8" standalone="no"?>
<!-- Created with Inkscape (http://www.inkscape.org/) -->

<svg
   width="215.41264mm"
   height="48.430851mm"
   viewBox="0 0 215.41264 48.430851"
   version="1.1"
   id="svg5"
   inkscape:version="1.1 (c4e8f9ed74, 2021-05-24)"
   sodipodi:docname="logo.svg"
   xmlns:inkscape="http://www.inkscape.org/namespaces/inkscape"
   xmlns:sodipodi="http://sodipodi.sourceforge.net/DTD/sodipodi-0.dtd"
   xmlns="http://www.w3.org/2000/svg"
   xmlns:svg="http://www.w3.org/2000/svg">
  <sodipodi:namedview
     id="namedview7"
     pagecolor="#ffffff"
     bordercolor="#666666"
     borderopacity="1.0"
     inkscape:pageshadow="2"
     inkscape:pageopacity="0.0"
     inkscape:pagecheckerboard="0"
     inkscape:document-units="mm"
     showgrid="false"
     fit-margin-top="5"
     fit-margin-right="5"
     fit-margin-bottom="5"
     fit-margin-left="5"
     inkscape:zoom="0.58796296"
     inkscape:cx="949.88976"
     inkscape:cy="142.01575"
     inkscape:window-width="2560"
     inkscape:window-height="1001"
     inkscape:window-x="0"
     inkscape:window-y="0"
     inkscape:window-maximized="1"
     inkscape:current-layer="layer1" />
  <defs
     id="defs2" />
  <g
     inkscape:label="Camada 1"
     inkscape:groupmode="layer"
     id="layer1"
     transform="translate(301.3237,-110.39247)">
    <g
       aria-label="i Portal i
Age Of Empires"
       id="text6765"
       style="font-size:10.5833px;line-height:1;stroke-width:0.264583">
      <path
         d="m -231.31654,123.6122 c 0,1.71097 0,3.10444 -0.0882,3.84528 -0.0529,0.51152 -0.15875,0.81139 -0.51153,0.88194 -0.15875,0.0353 -0.37042,0.0706 -0.635,0.0706 -0.21167,0 -0.28222,0.0529 -0.28222,0.14111 0,0.12347 0.12347,0.17639 0.35277,0.17639 0.70556,0 1.81681,-0.0529 2.22251,-0.0529 0.47625,0 1.5875,0.0529 2.75166,0.0529 0.19403,0 0.33514,-0.0529 0.33514,-0.17639 0,-0.0882 -0.0882,-0.14111 -0.28222,-0.14111 -0.26458,0 -0.65264,-0.0353 -0.89958,-0.0706 -0.52917,-0.0705 -0.65264,-0.38805 -0.70556,-0.8643 -0.0705,-0.75848 -0.0705,-2.15195 -0.0705,-3.86292 v -3.10445 c 0,-2.68111 0,-3.175 0.0353,-3.73945 0.0353,-0.61736 0.17639,-0.91722 0.65264,-1.00541 0.21167,-0.0353 0.35278,-0.0529 0.52917,-0.0529 0.17639,0 0.28222,-0.0353 0.28222,-0.17639 0,-0.10583 -0.14111,-0.14111 -0.37042,-0.14111 -0.67027,0 -1.71097,0.0529 -2.15194,0.0529 -0.51153,0 -1.62278,-0.0529 -2.29306,-0.0529 -0.28222,0 -0.42333,0.0353 -0.42333,0.14111 0,0.14111 0.10583,0.17639 0.28222,0.17639 0.21167,0 0.44097,0.0176 0.635,0.0705 0.38806,0.0882 0.56445,0.38806 0.59972,0.98778 0.0353,0.56445 0.0353,1.05834 0.0353,3.73945 z"
         style="font-size:17.6389px"
         id="path220923" />
      <path
         d="m -219.689,124.62467 c 0,1.29823 0,2.413 -0.0706,3.00567 -0.0564,0.40922 -0.127,0.71967 -0.40922,0.77611 -0.127,0.0282 -0.29633,0.0564 -0.508,0.0564 -0.16933,0 -0.22578,0.0423 -0.22578,0.11289 0,0.0988 0.0988,0.14111 0.28223,0.14111 0.56444,0 1.45344,-0.0423 1.77799,-0.0423 0.36689,0 1.25589,0.0423 2.18723,0.0423 0.15522,0 0.26811,-0.0423 0.26811,-0.14111 0,-0.0705 -0.0706,-0.11289 -0.22578,-0.11289 -0.21167,0 -0.52211,-0.0282 -0.71967,-0.0564 -0.42333,-0.0564 -0.508,-0.36689 -0.55033,-0.762 -0.0706,-0.60678 -0.0706,-1.72155 -0.0706,-3.01978 v -5.64444 c 0,-0.15522 0.0423,-0.23988 0.11289,-0.26811 0.127,-0.0423 0.33867,-0.0564 0.55034,-0.0564 0.32455,0 0.90311,0.0847 1.41111,0.55033 0.79022,0.70556 0.83255,1.651 0.83255,2.11667 0,1.43933 -1.10066,2.32833 -1.89089,2.32833 -0.29633,0 -0.39511,0.0423 -0.39511,0.15522 0,0.0988 0.0988,0.11289 0.16934,0.127 0.0705,0.0141 0.22577,0.0141 0.29633,0.0141 2.00378,0 3.47133,-1.41111 3.47133,-3.41488 0,-0.74789 -0.39511,-1.38289 -0.70556,-1.67923 -0.22577,-0.21166 -0.86077,-0.80433 -2.62466,-0.80433 -0.64911,0 -1.46755,0.0423 -2.04611,0.0423 -0.39511,0 -1.28411,-0.0423 -2.032,-0.0423 -0.21166,0 -0.31044,0.0282 -0.31044,0.127 0,0.0988 0.0847,0.127 0.23989,0.127 0.19755,0 0.43744,0.0141 0.55033,0.0423 0.46567,0.0988 0.57855,0.32455 0.60678,0.80433 0.0282,0.45155 0.0282,0.84666 0.0282,2.99155 z"
         style="font-weight:bold;font-size:14.1111px;font-family:Trajan;-inkscape-font-specification:'Trajan Bold';text-align:center;text-anchor:middle"
         id="path220925" />
      <path
         d="m -206.29759,128.91445 c 3.58422,0 5.842,-2.55411 5.842,-5.78555 0,-3.23144 -2.18722,-5.27755 -5.70088,-5.27755 -4.23333,0 -5.82789,3.11855 -5.82789,5.53155 0,2.49766 1.63689,5.53155 5.68677,5.53155 z m 0.59267,-0.70556 c -2.70933,0 -4.33211,-2.32833 -4.33211,-5.26344 0,-3.51366 1.84856,-4.41677 3.47133,-4.41677 2.31422,0 4.13456,1.96144 4.13456,5.12233 0,4.07811 -2.286,4.55788 -3.27378,4.55788 z"
         style="font-weight:bold;font-size:14.1111px;font-family:Trajan;-inkscape-font-specification:'Trajan Bold';text-align:center;text-anchor:middle"
         id="path220927" />
      <path
         d="m -197.5064,124.62467 c 0,1.29823 0,2.413 -0.0705,3.00567 -0.0564,0.40922 -0.127,0.71967 -0.40923,0.77611 -0.127,0.0282 -0.29633,0.0564 -0.508,0.0564 -0.16933,0 -0.22577,0.0423 -0.22577,0.11289 0,0.0988 0.0988,0.14111 0.28222,0.14111 0.56444,0 1.45344,-0.0423 1.72155,-0.0423 0.21167,0 1.25589,0.0423 2.07433,0.0423 0.18345,0 0.28223,-0.0423 0.28223,-0.14111 0,-0.0705 -0.0564,-0.11289 -0.16934,-0.11289 -0.16933,0 -0.47977,-0.0282 -0.69144,-0.0564 -0.42333,-0.0564 -0.508,-0.36689 -0.55033,-0.77611 -0.0706,-0.59267 -0.0706,-1.70744 -0.0706,-3.01978 v -0.19755 c 0,-0.0847 0.0423,-0.11289 0.11289,-0.11289 l 1.22767,0.0282 c 0.0988,0 0.18344,0.0141 0.25399,0.0988 0.18345,0.21167 0.83256,1.17122 1.397,1.94733 0.79023,1.08656 1.32645,1.74978 1.93322,2.07433 0.36689,0.19756 0.71967,0.26811 1.50989,0.26811 h 1.34056 c 0.16933,0 0.26811,-0.0282 0.26811,-0.14111 0,-0.0705 -0.0565,-0.11289 -0.16934,-0.11289 -0.11288,0 -0.23988,-0.0141 -0.39511,-0.0423 -0.21166,-0.0423 -0.79022,-0.14111 -1.58044,-0.95955 -0.83255,-0.87489 -1.80622,-2.13078 -3.06211,-3.71122 1.42522,-1.15711 1.86267,-2.11667 1.86267,-3.16089 0,-0.94544 -0.56445,-1.66511 -0.95956,-1.93322 -0.762,-0.52211 -1.70744,-0.60678 -2.59644,-0.60678 -0.43744,0 -1.50989,0.0423 -1.98967,0.0423 -0.29633,0 -1.18533,-0.0423 -1.93322,-0.0423 -0.21166,0 -0.31044,0.0282 -0.31044,0.127 0,0.0988 0.0847,0.127 0.23989,0.127 0.19755,0 0.43744,0.0141 0.55033,0.0423 0.46567,0.0988 0.57856,0.32455 0.60678,0.80433 0.0282,0.45155 0.0282,0.84666 0.0282,2.99155 z m 1.66511,-5.65855 c 0,-0.11289 0.0282,-0.16933 0.127,-0.19755 0.14111,-0.0423 0.39511,-0.0564 0.74789,-0.0564 0.83255,0 2.159,0.57856 2.159,2.58234 0,1.15711 -0.40922,1.80622 -0.83256,2.11666 -0.254,0.18344 -0.43744,0.23989 -1.00189,0.23989 -0.35277,0 -0.77611,-0.0423 -1.07244,-0.14111 -0.0988,-0.0423 -0.127,-0.0988 -0.127,-0.254 z"
         style="font-weight:bold;font-size:14.1111px;font-family:Trajan;-inkscape-font-specification:'Trajan Bold';text-align:center;text-anchor:middle"
         id="path220929" />
      <path
         d="m -185.51198,124.62467 c 0,1.29823 0,2.413 -0.0705,3.00567 -0.0423,0.40922 -0.127,0.71967 -0.40922,0.77611 -0.127,0.0282 -0.29634,0.0564 -0.508,0.0564 -0.16934,0 -0.22578,0.0423 -0.22578,0.11289 0,0.0988 0.0988,0.14111 0.28222,0.14111 0.56444,0 1.45344,-0.0423 1.778,-0.0423 0.39511,0 1.28411,0.0423 2.21544,0.0423 0.15522,0 0.26811,-0.0423 0.26811,-0.14111 0,-0.0705 -0.0705,-0.11289 -0.22578,-0.11289 -0.21166,0 -0.52211,-0.0282 -0.71966,-0.0564 -0.42333,-0.0564 -0.508,-0.36689 -0.55033,-0.762 -0.0706,-0.60678 -0.0706,-1.72155 -0.0706,-3.01978 v -5.78555 l 1.778,0.0423 c 1.25589,0.0282 1.63689,0.42333 1.66511,0.79022 l 0.0141,0.15522 c 0.0141,0.21167 0.0423,0.28222 0.15522,0.28222 0.0847,0 0.11289,-0.0847 0.127,-0.22577 0,-0.36689 0.0423,-1.34056 0.0423,-1.63689 0,-0.21167 -0.0141,-0.29634 -0.11288,-0.29634 -0.0565,0 -0.16934,0.0282 -0.381,0.0706 -0.21167,0.0282 -0.52211,0.0706 -0.97367,0.0706 h -5.588 c -0.46566,0 -1.00188,-0.0282 -1.41111,-0.0706 -0.35277,-0.0282 -0.49388,-0.16933 -0.60677,-0.16933 -0.0847,0 -0.127,0.0847 -0.16934,0.26811 -0.0282,0.11289 -0.29633,1.397 -0.29633,1.62277 0,0.15523 0.0282,0.22578 0.127,0.22578 0.0847,0 0.127,-0.0564 0.15522,-0.16933 0.0282,-0.11289 0.0988,-0.28222 0.23989,-0.49389 0.21167,-0.31044 0.55033,-0.381 1.36878,-0.40922 l 2.10255,-0.0565 z"
         style="font-weight:bold;font-size:14.1111px;font-family:Trajan;-inkscape-font-specification:'Trajan Bold';text-align:center;text-anchor:middle"
         id="path220931" />
      <path
         d="m -174.50535,125.0339 c 0.0705,0 0.11289,0.0282 0.14111,0.0988 l 1.12889,2.99156 c 0.0705,0.16933 -0.0282,0.29633 -0.127,0.32455 -0.14111,0.0141 -0.19756,0.0423 -0.19756,0.127 0,0.0988 0.16934,0.0988 0.42334,0.11289 1.12888,0.0282 2.15899,0.0282 2.66699,0.0282 0.52211,0 0.64911,-0.0282 0.64911,-0.14111 0,-0.0988 -0.0705,-0.11289 -0.18344,-0.11289 -0.16933,0 -0.381,-0.0141 -0.59267,-0.0564 -0.29633,-0.0706 -0.70555,-0.26811 -1.24177,-1.53811 -0.90311,-2.14489 -3.16089,-7.90222 -3.49956,-8.67833 -0.14111,-0.32455 -0.22577,-0.45155 -0.35277,-0.45155 -0.14111,0 -0.22578,0.15522 -0.39511,0.56444 l -3.54189,8.86177 c -0.28222,0.70556 -0.55033,1.18534 -1.19944,1.27 -0.11289,0.0141 -0.31045,0.0282 -0.43745,0.0282 -0.11289,0 -0.16933,0.0282 -0.16933,0.11289 0,0.11289 0.0847,0.14111 0.26811,0.14111 0.73378,0 1.50989,-0.0423 1.66511,-0.0423 0.43744,0 1.04422,0.0423 1.49578,0.0423 0.15522,0 0.23989,-0.0282 0.23989,-0.14111 0,-0.0847 -0.0423,-0.11289 -0.21167,-0.11289 h -0.21167 c -0.43744,0 -0.56444,-0.18344 -0.56444,-0.43744 0,-0.16933 0.0705,-0.508 0.21166,-0.86078 l 0.762,-2.01788 c 0.0282,-0.0847 0.0565,-0.11289 0.127,-0.11289 z m -2.86455,-0.70556 c -0.0565,0 -0.0706,-0.0423 -0.0565,-0.0988 l 1.29822,-3.47133 c 0.0141,-0.0564 0.0423,-0.127 0.0847,-0.127 0.0423,0 0.0564,0.0706 0.0706,0.127 l 1.26999,3.48545 c 0.0141,0.0423 0,0.0847 -0.0705,0.0847 z"
         style="font-weight:bold;font-size:14.1111px;font-family:Trajan;-inkscape-font-specification:'Trajan Bold';text-align:center;text-anchor:middle"
         id="path220933" />
      <path
         d="m -166.57493,122.14112 c 0,-2.14489 0,-2.54 0.0282,-2.99155 0.0282,-0.49389 0.14112,-0.73378 0.52211,-0.80433 0.16934,-0.0282 0.39512,-0.0423 0.55034,-0.0423 0.16933,0 0.254,-0.0282 0.254,-0.127 0,-0.0988 -0.0988,-0.127 -0.29634,-0.127 -0.55033,0 -1.58044,0.0423 -1.91911,0.0423 -0.38099,0 -1.26999,-0.0423 -1.93322,-0.0423 -0.21166,0 -0.31044,0.0282 -0.31044,0.127 0,0.0988 0.0847,0.127 0.23989,0.127 0.18344,0 0.35278,0.0141 0.46566,0.0423 0.46567,0.0988 0.57856,0.32455 0.60678,0.80433 0.0282,0.45155 0.0282,0.84666 0.0282,2.99155 v 2.48355 c 0,1.29823 0,2.413 -0.0705,3.00567 -0.0565,0.40922 -0.127,0.71967 -0.40922,0.77611 -0.127,0.0282 -0.29634,0.0564 -0.508,0.0564 -0.16934,0 -0.22578,0.0423 -0.22578,0.11289 0,0.0988 0.0988,0.14111 0.28222,0.14111 0.56445,0 1.45345,-0.0423 1.778,-0.0423 1.143,0 2.07433,0.0847 4.10633,0.0847 0.73378,0 0.80433,-0.0706 0.889,-0.381 0.11289,-0.40922 0.21167,-1.46756 0.21167,-1.62278 0,-0.16933 -0.0141,-0.23989 -0.11289,-0.23989 -0.11289,0 -0.14111,0.0847 -0.15522,0.21167 -0.0282,0.26811 -0.19756,0.66322 -0.36689,0.84666 -0.35278,0.381 -0.90311,0.39512 -1.651,0.39512 -1.10067,0 -1.46756,-0.0988 -1.70745,-0.31045 -0.29633,-0.254 -0.29633,-1.22766 -0.29633,-3.03389 z"
         style="font-weight:bold;font-size:14.1111px;font-family:Trajan;-inkscape-font-specification:'Trajan Bold';text-align:center;text-anchor:middle"
         id="path220935" />
      <path
         d="m -154.98973,123.6122 c 0,1.71097 0,3.10444 -0.0882,3.84528 -0.0529,0.51152 -0.15875,0.81139 -0.51153,0.88194 -0.15875,0.0353 -0.37042,0.0706 -0.635,0.0706 -0.21167,0 -0.28222,0.0529 -0.28222,0.14111 0,0.12347 0.12347,0.17639 0.35278,0.17639 0.70555,0 1.8168,-0.0529 2.2225,-0.0529 0.47625,0 1.5875,0.0529 2.75167,0.0529 0.19402,0 0.33514,-0.0529 0.33514,-0.17639 0,-0.0882 -0.0882,-0.14111 -0.28223,-0.14111 -0.26458,0 -0.65264,-0.0353 -0.89958,-0.0706 -0.52917,-0.0705 -0.65264,-0.38805 -0.70556,-0.8643 -0.0705,-0.75848 -0.0705,-2.15195 -0.0705,-3.86292 v -3.10445 c 0,-2.68111 0,-3.175 0.0353,-3.73945 0.0353,-0.61736 0.17638,-0.91722 0.65264,-1.00541 0.21166,-0.0353 0.35277,-0.0529 0.52916,-0.0529 0.17639,0 0.28222,-0.0353 0.28222,-0.17639 0,-0.10583 -0.14111,-0.14111 -0.37041,-0.14111 -0.67028,0 -1.71098,0.0529 -2.15195,0.0529 -0.51153,0 -1.62278,-0.0529 -2.29306,-0.0529 -0.28222,0 -0.42333,0.0353 -0.42333,0.14111 0,0.14111 0.10583,0.17639 0.28222,0.17639 0.21167,0 0.44098,0.0176 0.635,0.0705 0.38806,0.0882 0.56445,0.38806 0.59973,0.98778 0.0353,0.56445 0.0353,1.05834 0.0353,3.73945 z"
         style="font-size:17.6389px"
         id="path220937" />
      <path
         d="m -285.238,147.61442 c 0.11289,0 0.18062,0.0452 0.22578,0.15805 l 1.80622,4.78649 c 0.11289,0.27094 -0.0451,0.47414 -0.2032,0.51929 -0.22577,0.0226 -0.31609,0.0677 -0.31609,0.2032 0,0.15805 0.27094,0.15805 0.67734,0.18063 1.80622,0.0452 3.4544,0.0452 4.2672,0.0452 0.83538,0 1.03858,-0.0452 1.03858,-0.22578 0,-0.15804 -0.11289,-0.18062 -0.29351,-0.18062 -0.27093,0 -0.6096,-0.0226 -0.94827,-0.0903 -0.47413,-0.11289 -1.12889,-0.42898 -1.98684,-2.46098 -1.44498,-3.43183 -5.05743,-12.64357 -5.5993,-13.88535 -0.22578,-0.51929 -0.36124,-0.72249 -0.56444,-0.72249 -0.22578,0 -0.36125,0.24836 -0.63218,0.90311 l -5.66703,14.17886 c -0.45156,1.12889 -0.88053,1.89654 -1.91911,2.032 -0.18063,0.0226 -0.49671,0.0452 -0.69991,0.0452 -0.18063,0 -0.27094,0.0452 -0.27094,0.18062 0,0.18063 0.13547,0.22578 0.42898,0.22578 1.17405,0 2.41582,-0.0677 2.66418,-0.0677 0.69991,0 1.67076,0.0677 2.39325,0.0677 0.24835,0 0.38382,-0.0452 0.38382,-0.22578 0,-0.13546 -0.0677,-0.18062 -0.33867,-0.18062 h -0.33866 c -0.69992,0 -0.90312,-0.29351 -0.90312,-0.69991 0,-0.27094 0.11289,-0.8128 0.33867,-1.37725 l 1.2192,-3.22862 c 0.0452,-0.13547 0.0903,-0.18063 0.2032,-0.18063 z m -4.58329,-1.12889 c -0.0903,0 -0.11289,-0.0677 -0.0903,-0.15804 l 2.07715,-5.55414 c 0.0226,-0.0903 0.0677,-0.2032 0.13547,-0.2032 0.0677,0 0.0903,0.11289 0.11289,0.2032 l 2.032,5.57672 c 0.0226,0.0677 0,0.13546 -0.11289,0.13546 z"
         style="font-size:22.5778px;font-family:Trajan;-inkscape-font-specification:Trajan;text-align:center;text-anchor:middle;fill:#a02c2c"
         id="path220939" />
      <path
         d="m -261.6668,149.51096 c 0,-1.12889 0,-2.032 0.0226,-2.70934 0.0226,-0.79022 0.24835,-1.17404 0.85795,-1.28693 0.27094,-0.0452 0.42898,-0.0677 0.6096,-0.0677 0.15805,0 0.29352,-0.0452 0.29352,-0.18063 0,-0.18062 -0.15805,-0.22577 -0.45156,-0.22577 -0.74507,0 -1.94169,0.0677 -2.6416,0.0677 -0.67734,0 -2.09974,-0.0677 -3.27378,-0.0677 -0.31609,0 -0.47414,0.0452 -0.47414,0.22577 0,0.13547 0.13547,0.18063 0.33867,0.18063 0.31609,0 0.69991,0.0226 0.88053,0.0677 0.74507,0.15804 0.94827,0.51929 0.97085,1.28693 0.0226,0.67734 0.0226,1.53529 0.0226,2.66418 v 2.12232 c 0,0.38382 -0.0903,0.67733 -0.42898,0.83538 -0.54187,0.24835 -1.33209,0.24835 -1.91911,0.24835 -4.76392,0 -7.85708,-3.63502 -7.85708,-8.48925 0,-2.77707 0.8128,-4.47041 2.07716,-5.53156 1.58044,-1.30951 3.22862,-1.39983 4.4704,-1.39983 2.55129,0 4.35752,1.03858 5.03485,1.76107 0.58703,0.63218 0.69991,1.35467 0.76765,1.87396 0.0226,0.18062 0.0677,0.29351 0.22578,0.29351 0.18062,0 0.24835,-0.11289 0.24835,-0.47413 0,-2.82223 0.15805,-3.45441 0.15805,-3.70276 0,-0.15805 -0.0452,-0.24836 -0.31609,-0.27094 -0.51929,-0.0226 -1.30952,-0.15804 -1.78365,-0.24835 -0.45155,-0.0903 -2.4384,-0.36125 -3.99627,-0.36125 -1.89653,0 -3.90596,0.15805 -6.07343,1.46756 -2.05458,1.24178 -3.92854,3.77049 -3.92854,7.38294 0,6.23147 4.89939,8.8505 10.43095,8.8505 1.76107,0 3.97369,-0.24836 5.44125,-1.016 0.27093,-0.15805 0.29351,-0.2032 0.29351,-0.8128 z"
         style="font-size:22.5778px;font-family:Trajan;-inkscape-font-specification:Trajan;text-align:center;text-anchor:middle;fill:#a02c2c"
         id="path220941" />
      <path
         d="m -255.3676,146.95967 c 0,2.07716 0,3.8608 -0.11289,4.80907 -0.0903,0.65476 -0.2032,1.15147 -0.65476,1.24178 -0.2032,0.0451 -0.47413,0.0903 -0.8128,0.0903 -0.27093,0 -0.36124,0.0677 -0.36124,0.18062 0,0.15805 0.15804,0.22578 0.45155,0.22578 0.90311,0 2.32552,-0.0677 2.84481,-0.0677 1.33209,0 2.8448,0.13546 6.25405,0.13546 0.85795,0 1.06115,0 1.2192,-0.58702 0.11289,-0.45155 0.29351,-1.98685 0.29351,-2.50613 0,-0.22578 0,-0.40641 -0.18062,-0.40641 -0.15805,0 -0.2032,0.0903 -0.24836,0.33867 -0.15804,0.92569 -0.42898,1.39983 -1.016,1.67076 -0.58702,0.27093 -1.53529,0.27093 -2.12231,0.27093 -2.30294,0 -2.66418,-0.33866 -2.70934,-1.89653 -0.0226,-0.65476 0,-2.73192 0,-3.49956 v -1.78365 c 0,-0.13546 0.0226,-0.22578 0.13547,-0.22578 0.54186,0 2.77707,0.0226 3.20604,0.0677 0.83538,0.0903 1.15147,0.42898 1.26436,0.88053 0.0677,0.29351 0.0677,0.58702 0.0903,0.8128 0,0.11289 0.0452,0.2032 0.2032,0.2032 0.2032,0 0.2032,-0.24835 0.2032,-0.42898 0,-0.15804 0.0452,-1.06115 0.0903,-1.51271 0.0677,-1.15147 0.18063,-1.51271 0.18063,-1.64818 0,-0.13546 -0.0677,-0.18062 -0.15805,-0.18062 -0.11289,0 -0.2032,0.11289 -0.36124,0.29351 -0.2032,0.22578 -0.54187,0.29351 -1.08374,0.33867 -0.51929,0.0452 -3.11573,0.0452 -3.61245,0.0452 -0.13546,0 -0.15804,-0.0903 -0.15804,-0.24835 v -5.71219 c 0,-0.15804 0.0452,-0.22577 0.15804,-0.22577 0.45156,0 2.82223,0.0452 3.20605,0.0903 1.12889,0.13546 1.35467,0.4064 1.51272,0.8128 0.11288,0.27093 0.13546,0.65475 0.13546,0.8128 0,0.2032 0.0452,0.31609 0.2032,0.31609 0.15805,0 0.2032,-0.13547 0.22578,-0.24836 0.0452,-0.27093 0.0903,-1.26435 0.11289,-1.49013 0.0677,-1.03858 0.18062,-1.30951 0.18062,-1.46756 0,-0.11289 -0.0226,-0.2032 -0.13547,-0.2032 -0.11288,0 -0.24835,0.0677 -0.36124,0.0903 -0.18062,0.0452 -0.54187,0.0903 -0.97085,0.13547 -0.42897,0.0226 -4.92196,0.0226 -5.64445,0.0226 -0.63217,0 -2.05458,-0.0677 -3.2512,-0.0677 -0.33867,0 -0.49671,0.0452 -0.49671,0.2032 0,0.15805 0.13547,0.2032 0.38382,0.2032 0.31609,0 0.69991,0.0226 0.88054,0.0677 0.74506,0.15804 0.92569,0.51929 0.97084,1.28693 0.0452,0.72249 0.0452,1.35467 0.0452,4.7865 z"
         style="font-size:22.5778px;font-family:Trajan;-inkscape-font-specification:Trajan;text-align:center;text-anchor:middle;fill:#a02c2c"
         id="path220943" />
      <path
         d="m -227.68723,153.82332 c 5.73476,0 9.34721,-4.08658 9.34721,-9.2569 0,-5.17031 -3.49956,-8.4441 -9.12144,-8.4441 -6.77334,0 -9.32463,4.9897 -9.32463,8.8505 0,3.99627 2.61903,8.8505 9.09886,8.8505 z m 0.94826,-1.12889 c -4.33493,0 -6.93138,-3.72534 -6.93138,-8.42152 0,-5.62187 2.95769,-7.06685 5.55414,-7.06685 3.70276,0 6.61529,3.13831 6.61529,8.19574 0,6.52498 -3.6576,7.29263 -5.23805,7.29263 z"
         style="font-size:22.5778px;font-family:Trajan;-inkscape-font-specification:Trajan;text-align:center;text-anchor:middle;fill:#a02c2c"
         id="path220945" />
      <path
         d="m -210.77651,145.13087 c 0,-0.15805 0.0452,-0.2032 0.15805,-0.2032 0.38382,0 2.77707,0 3.34151,0.0677 0.69991,0.0903 1.03858,0.49671 1.15147,0.8128 0.0903,0.27093 0.13547,0.54187 0.13547,0.69991 0,0.15805 0.0452,0.31609 0.18062,0.31609 0.22578,0 0.22578,-0.22578 0.22578,-0.42898 0,-0.15804 0.0452,-1.19662 0.0903,-1.64818 0.0677,-0.69991 0.18062,-1.26435 0.18062,-1.39982 0,-0.13547 -0.0452,-0.2032 -0.13547,-0.2032 -0.13546,0 -0.18062,0.0903 -0.29351,0.22578 -0.22578,0.29351 -0.54187,0.38382 -0.97084,0.4064 -0.31609,0.0226 -0.63218,0.0226 -1.016,0.0226 l -2.88996,0.0226 c -0.13547,0 -0.15805,-0.0677 -0.15805,-0.2032 v -5.64445 c 0,-0.24835 0.0677,-0.31609 0.2032,-0.31609 l 3.47698,0.0677 c 0.85796,0.0226 1.33209,0.36124 1.49014,0.67733 0.13547,0.31609 0.13547,0.67734 0.13547,0.85796 0.0226,0.24835 0.0677,0.36124 0.22577,0.36124 0.15805,0 0.2032,-0.13546 0.22578,-0.31609 0.0452,-0.27093 0.0903,-1.60302 0.11289,-1.8288 0.0677,-0.58702 0.18062,-0.85795 0.18062,-1.016 0,-0.11289 -0.0677,-0.2032 -0.15804,-0.2032 -0.11289,0 -0.22578,0.0903 -0.36125,0.13547 -0.22577,0.0677 -0.49671,0.0677 -0.92569,0.0903 -0.51929,0.0226 -5.10258,0.0226 -5.96054,0.0226 -0.65475,0 -2.07715,-0.0677 -3.2512,-0.0677 -0.33867,0 -0.51929,0.0452 -0.51929,0.22578 0,0.13547 0.15805,0.18062 0.38382,0.18062 0.31609,0 0.69992,0.0226 0.88054,0.0677 0.74507,0.15804 0.92569,0.51929 0.97084,1.28693 0.0452,0.72249 0.0452,1.35467 0.0452,4.7865 v 3.97369 c 0,2.16747 0,3.8608 -0.11289,4.80907 -0.0903,0.65476 -0.2032,1.15147 -0.65476,1.24178 -0.2032,0.0451 -0.47413,0.0903 -0.8128,0.0903 -0.24835,0 -0.33866,0.0677 -0.33866,0.18062 0,0.18063 0.15804,0.22578 0.47413,0.22578 0.85796,0 2.28036,-0.0677 2.86738,-0.0677 0.58702,0 2.00943,0.0677 3.43183,0.0677 0.33866,0 0.49671,-0.0677 0.49671,-0.22578 0,-0.11289 -0.0903,-0.18062 -0.38382,-0.18062 -0.31609,0 -0.81281,-0.0452 -1.12889,-0.0903 -0.67734,-0.0903 -0.81281,-0.58702 -0.88054,-1.24178 -0.11289,-0.94827 -0.11289,-2.6416 -0.11289,-4.80907 z"
         style="font-size:22.5778px;font-family:Trajan;-inkscape-font-specification:Trajan;text-align:center;text-anchor:middle;fill:#a02c2c"
         id="path220947" />
      <path
         d="m -192.80461,146.95967 c 0,2.07716 0,3.8608 -0.11289,4.80907 -0.0903,0.65476 -0.2032,1.15147 -0.65475,1.24178 -0.2032,0.0451 -0.47414,0.0903 -0.8128,0.0903 -0.27094,0 -0.36125,0.0677 -0.36125,0.18062 0,0.15805 0.15805,0.22578 0.45156,0.22578 0.90311,0 2.32551,-0.0677 2.8448,-0.0677 1.33209,0 2.8448,0.13546 6.25405,0.13546 0.85796,0 1.06116,0 1.2192,-0.58702 0.11289,-0.45155 0.29351,-1.98685 0.29351,-2.50613 0,-0.22578 0,-0.40641 -0.18062,-0.40641 -0.15804,0 -0.2032,0.0903 -0.24835,0.33867 -0.15805,0.92569 -0.42898,1.39983 -1.016,1.67076 -0.58703,0.27093 -1.53529,0.27093 -2.12232,0.27093 -2.30293,0 -2.66418,-0.33866 -2.70933,-1.89653 -0.0226,-0.65476 0,-2.73192 0,-3.49956 v -1.78365 c 0,-0.13546 0.0226,-0.22578 0.13546,-0.22578 0.54187,0 2.77707,0.0226 3.20605,0.0677 0.83538,0.0903 1.15147,0.42898 1.26436,0.88053 0.0677,0.29351 0.0677,0.58702 0.0903,0.8128 0,0.11289 0.0452,0.2032 0.2032,0.2032 0.2032,0 0.2032,-0.24835 0.2032,-0.42898 0,-0.15804 0.0452,-1.06115 0.0903,-1.51271 0.0677,-1.15147 0.18062,-1.51271 0.18062,-1.64818 0,-0.13546 -0.0677,-0.18062 -0.15804,-0.18062 -0.11289,0 -0.2032,0.11289 -0.36125,0.29351 -0.2032,0.22578 -0.54186,0.29351 -1.08373,0.33867 -0.51929,0.0452 -3.11574,0.0452 -3.61245,0.0452 -0.13547,0 -0.15804,-0.0903 -0.15804,-0.24835 v -5.71219 c 0,-0.15804 0.0452,-0.22577 0.15804,-0.22577 0.45156,0 2.82223,0.0452 3.20605,0.0903 1.12889,0.13546 1.35467,0.4064 1.51271,0.8128 0.11289,0.27093 0.13547,0.65475 0.13547,0.8128 0,0.2032 0.0452,0.31609 0.2032,0.31609 0.15804,0 0.2032,-0.13547 0.22578,-0.24836 0.0452,-0.27093 0.0903,-1.26435 0.11289,-1.49013 0.0677,-1.03858 0.18062,-1.30951 0.18062,-1.46756 0,-0.11289 -0.0226,-0.2032 -0.13547,-0.2032 -0.11289,0 -0.24836,0.0677 -0.36124,0.0903 -0.18063,0.0452 -0.54187,0.0903 -0.97085,0.13547 -0.42898,0.0226 -4.92196,0.0226 -5.64445,0.0226 -0.63218,0 -2.05458,-0.0677 -3.2512,-0.0677 -0.33867,0 -0.49671,0.0452 -0.49671,0.2032 0,0.15805 0.13546,0.2032 0.38382,0.2032 0.31609,0 0.69991,0.0226 0.88053,0.0677 0.74507,0.15804 0.92569,0.51929 0.97085,1.28693 0.0452,0.72249 0.0452,1.35467 0.0452,4.7865 z"
         style="font-size:22.5778px;font-family:Trajan;-inkscape-font-specification:Trajan;text-align:center;text-anchor:middle;fill:#a02c2c"
         id="path220949" />
      <path
         d="m -179.93526,151.24945 c -0.11289,0.76765 -0.29351,1.64818 -0.92569,1.78365 -0.33866,0.0677 -0.49671,0.0677 -0.67733,0.0677 -0.22578,0 -0.36125,0.0452 -0.36125,0.15804 0,0.20321 0.18063,0.24836 0.4064,0.24836 0.72249,0 1.80623,-0.0677 2.23521,-0.0677 0.4064,0 1.4224,0.0677 2.37067,0.0677 0.33866,0 0.54186,-0.0452 0.54186,-0.24836 0,-0.11288 -0.15804,-0.15804 -0.33866,-0.15804 -0.22578,0 -0.54187,-0.0226 -0.94827,-0.11289 -0.38382,-0.0903 -0.67734,-0.29351 -0.67734,-0.72249 0,-0.36124 0.0226,-0.65475 0.0677,-1.06116 l 1.17404,-8.98596 h 0.0903 c 0.79023,1.69334 2.1449,4.53814 2.3481,5.01227 0.27093,0.63218 2.05458,4.08658 2.59644,5.12516 0.36125,0.67734 0.58703,1.12889 0.79023,1.12889 0.2032,0 0.31608,-0.2032 0.83537,-1.26435 l 4.92196,-10.25033 h 0.0903 l 1.35466,9.93424 c 0.0903,0.63218 0.0226,0.92569 -0.11289,0.97084 -0.15804,0.0677 -0.24835,0.13547 -0.24835,0.24836 0,0.13546 0.13547,0.2032 0.65476,0.24835 0.90311,0.0677 4.01884,0.13547 4.58329,0.13547 0.31609,0 0.58702,-0.0677 0.58702,-0.24836 0,-0.13546 -0.15804,-0.15804 -0.36124,-0.15804 -0.29351,0 -0.74507,-0.0226 -1.39983,-0.22578 -0.67733,-0.2032 -0.90311,-0.85795 -1.10631,-2.28036 l -2.05458,-13.95308 c -0.0677,-0.47413 -0.2032,-0.69991 -0.4064,-0.69991 -0.2032,0 -0.33867,0.18062 -0.49671,0.54187 l -6.14116,12.89192 -6.16374,-12.73388 c -0.29351,-0.58702 -0.42898,-0.69991 -0.6096,-0.69991 -0.18063,0 -0.31609,0.2032 -0.38383,0.58702 z"
         style="font-size:22.5778px;font-family:Trajan;-inkscape-font-specification:Trajan;text-align:center;text-anchor:middle;fill:#a02c2c"
         id="path220951" />
      <path
         d="m -154.9868,146.95967 c 0,2.07716 0,3.8608 -0.11289,4.80907 -0.0903,0.65476 -0.2032,1.15147 -0.65475,1.24178 -0.2032,0.0451 -0.47414,0.0903 -0.8128,0.0903 -0.27094,0 -0.36125,0.0677 -0.36125,0.18062 0,0.15805 0.15805,0.22578 0.45156,0.22578 0.90311,0 2.32551,-0.0677 2.8448,-0.0677 0.58702,0 2.00943,0.0677 3.49956,0.0677 0.24836,0 0.42898,-0.0677 0.42898,-0.22578 0,-0.11289 -0.11289,-0.18062 -0.36125,-0.18062 -0.33866,0 -0.83537,-0.0452 -1.15146,-0.0903 -0.67734,-0.0903 -0.8128,-0.58702 -0.88054,-1.2192 -0.11289,-0.97085 -0.11289,-2.75449 -0.11289,-4.83165 v -9.03112 c 0,-0.24836 0.0677,-0.38382 0.18063,-0.42898 0.2032,-0.0677 0.54186,-0.0903 0.88053,-0.0903 0.51929,0 1.44498,0.13547 2.25778,0.88053 1.26436,1.12889 1.33209,2.64161 1.33209,3.38667 0,2.30294 -1.76107,3.72534 -3.02543,3.72534 -0.47413,0 -0.63217,0.0677 -0.63217,0.24836 0,0.15804 0.15804,0.18062 0.27093,0.2032 0.11289,0.0226 0.36124,0.0226 0.47413,0.0226 3.20605,0 5.55414,-2.25778 5.55414,-5.46382 0,-1.19663 -0.63218,-2.21263 -1.12889,-2.68676 -0.36124,-0.33867 -1.37724,-1.28694 -4.19947,-1.28694 -1.03858,0 -2.34809,0.0677 -3.27378,0.0677 -0.63218,0 -2.05458,-0.0677 -3.2512,-0.0677 -0.33867,0 -0.49671,0.0452 -0.49671,0.2032 0,0.15805 0.13546,0.2032 0.38382,0.2032 0.31609,0 0.69991,0.0226 0.88053,0.0677 0.74507,0.15804 0.92569,0.51929 0.97085,1.28693 0.0452,0.72249 0.0452,1.35467 0.0452,4.7865 z"
         style="font-size:22.5778px;font-family:Trajan;-inkscape-font-specification:Trajan;text-align:center;text-anchor:middle;fill:#a02c2c"
         id="path220953" />
      <path
         d="m -140.19838,146.95967 c 0,2.19005 0,3.97369 -0.11288,4.92196 -0.0677,0.65476 -0.2032,1.03858 -0.65476,1.12889 -0.2032,0.0451 -0.47413,0.0903 -0.8128,0.0903 -0.27093,0 -0.36125,0.0677 -0.36125,0.18062 0,0.15805 0.15805,0.22578 0.45156,0.22578 0.90311,0 2.32551,-0.0677 2.8448,-0.0677 0.6096,0 2.03201,0.0677 3.52214,0.0677 0.24836,0 0.42898,-0.0677 0.42898,-0.22578 0,-0.11289 -0.11289,-0.18062 -0.36125,-0.18062 -0.33866,0 -0.83538,-0.0452 -1.15146,-0.0903 -0.67734,-0.0903 -0.83538,-0.49671 -0.90312,-1.10631 -0.0903,-0.97085 -0.0903,-2.75449 -0.0903,-4.94454 v -3.97369 c 0,-3.43183 0,-4.06401 0.0452,-4.7865 0.0451,-0.79022 0.22578,-1.17404 0.83538,-1.28693 0.27093,-0.0452 0.45155,-0.0677 0.67733,-0.0677 0.22578,0 0.36125,-0.0452 0.36125,-0.22577 0,-0.13547 -0.18063,-0.18063 -0.47414,-0.18063 -0.85795,0 -2.19005,0.0677 -2.75449,0.0677 -0.65476,0 -2.07716,-0.0677 -2.93511,-0.0677 -0.36125,0 -0.54187,0.0452 -0.54187,0.18063 0,0.18062 0.13547,0.22577 0.36124,0.22577 0.27094,0 0.56445,0.0226 0.8128,0.0903 0.49672,0.11289 0.72249,0.49672 0.76765,1.26436 0.0452,0.72249 0.0452,1.35467 0.0452,4.7865 z"
         style="font-size:22.5778px;font-family:Trajan;-inkscape-font-specification:Trajan;text-align:center;text-anchor:middle;fill:#a02c2c"
         id="path220955" />
      <path
         d="m -129.99322,146.95967 c 0,2.07716 0,3.8608 -0.11289,4.80907 -0.0903,0.65476 -0.2032,1.15147 -0.65476,1.24178 -0.2032,0.0451 -0.47413,0.0903 -0.8128,0.0903 -0.27093,0 -0.36124,0.0677 -0.36124,0.18062 0,0.15805 0.15804,0.22578 0.45155,0.22578 0.90312,0 2.32552,-0.0677 2.7545,-0.0677 0.33866,0 2.00942,0.0677 3.31893,0.0677 0.29351,0 0.45156,-0.0677 0.45156,-0.22578 0,-0.11289 -0.0903,-0.18062 -0.27093,-0.18062 -0.27094,0 -0.76765,-0.0452 -1.10632,-0.0903 -0.67733,-0.0903 -0.8128,-0.58702 -0.88053,-1.24178 -0.11289,-0.94827 -0.11289,-2.73191 -0.11289,-4.83165 V 146.621 c 0,-0.13547 0.0677,-0.18062 0.18062,-0.18062 l 1.96427,0.0452 c 0.15805,0 0.29351,0.0226 0.4064,0.15805 0.29351,0.33867 1.33209,1.87396 2.2352,3.11574 1.26436,1.73849 2.12232,2.79964 3.09316,3.31893 0.58703,0.31609 1.15147,0.42898 2.41583,0.42898 h 2.14489 c 0.27093,0 0.42898,-0.0452 0.42898,-0.22578 0,-0.11289 -0.0903,-0.18062 -0.27094,-0.18062 -0.18062,0 -0.38382,-0.0226 -0.63218,-0.0677 -0.33866,-0.0677 -1.26435,-0.22578 -2.52871,-1.53529 -1.33209,-1.39983 -2.88996,-3.40925 -4.89938,-5.93797 2.28036,-1.85137 2.98027,-3.38667 2.98027,-5.05742 0,-1.51272 -0.90311,-2.66418 -1.53529,-3.09316 -1.2192,-0.83538 -2.73192,-0.97085 -4.15432,-0.97085 -0.69991,0 -2.41582,0.0677 -3.18347,0.0677 -0.47413,0 -1.89653,-0.0677 -3.09316,-0.0677 -0.33866,0 -0.49671,0.0452 -0.49671,0.2032 0,0.15805 0.13547,0.2032 0.38382,0.2032 0.31609,0 0.69992,0.0226 0.88054,0.0677 0.74507,0.15804 0.92569,0.51929 0.97084,1.28693 0.0452,0.72249 0.0452,1.35467 0.0452,4.7865 z m 2.66418,-9.0537 c 0,-0.18062 0.0452,-0.27093 0.2032,-0.31609 0.22578,-0.0677 0.63218,-0.0903 1.19662,-0.0903 1.33209,0 3.45441,0.92569 3.45441,4.13174 0,1.85138 -0.65476,2.88996 -1.33209,3.38667 -0.4064,0.29351 -0.69992,0.38382 -1.60303,0.38382 -0.56444,0 -1.24178,-0.0677 -1.71591,-0.22578 -0.15804,-0.0677 -0.2032,-0.15804 -0.2032,-0.4064 z"
         style="font-size:22.5778px;font-family:Trajan;-inkscape-font-specification:Trajan;text-align:center;text-anchor:middle;fill:#a02c2c"
         id="path220957" />
      <path
         d="m -112.94699,146.95967 c 0,2.07716 0,3.8608 -0.11289,4.80907 -0.0903,0.65476 -0.2032,1.15147 -0.65475,1.24178 -0.2032,0.0451 -0.47414,0.0903 -0.8128,0.0903 -0.27094,0 -0.36125,0.0677 -0.36125,0.18062 0,0.15805 0.15805,0.22578 0.45156,0.22578 0.90311,0 2.32551,-0.0677 2.8448,-0.0677 1.33209,0 2.8448,0.13546 6.25405,0.13546 0.85796,0 1.06116,0 1.2192,-0.58702 0.11289,-0.45155 0.29351,-1.98685 0.29351,-2.50613 0,-0.22578 0,-0.40641 -0.18062,-0.40641 -0.15804,0 -0.2032,0.0903 -0.24835,0.33867 -0.15805,0.92569 -0.42898,1.39983 -1.016,1.67076 -0.58703,0.27093 -1.53529,0.27093 -2.12232,0.27093 -2.30293,0 -2.66418,-0.33866 -2.70933,-1.89653 -0.0226,-0.65476 0,-2.73192 0,-3.49956 v -1.78365 c 0,-0.13546 0.0226,-0.22578 0.13546,-0.22578 0.54187,0 2.77707,0.0226 3.20605,0.0677 0.83538,0.0903 1.15147,0.42898 1.26436,0.88053 0.0677,0.29351 0.0677,0.58702 0.0903,0.8128 0,0.11289 0.0452,0.2032 0.2032,0.2032 0.2032,0 0.2032,-0.24835 0.2032,-0.42898 0,-0.15804 0.0452,-1.06115 0.0903,-1.51271 0.0677,-1.15147 0.18062,-1.51271 0.18062,-1.64818 0,-0.13546 -0.0677,-0.18062 -0.15804,-0.18062 -0.11289,0 -0.2032,0.11289 -0.36125,0.29351 -0.2032,0.22578 -0.54186,0.29351 -1.08373,0.33867 -0.51929,0.0452 -3.11574,0.0452 -3.61245,0.0452 -0.13547,0 -0.15804,-0.0903 -0.15804,-0.24835 v -5.71219 c 0,-0.15804 0.0452,-0.22577 0.15804,-0.22577 0.45156,0 2.82223,0.0452 3.20605,0.0903 1.12889,0.13546 1.35467,0.4064 1.51271,0.8128 0.11289,0.27093 0.13547,0.65475 0.13547,0.8128 0,0.2032 0.0452,0.31609 0.2032,0.31609 0.15804,0 0.2032,-0.13547 0.22578,-0.24836 0.0451,-0.27093 0.0903,-1.26435 0.11289,-1.49013 0.0677,-1.03858 0.18062,-1.30951 0.18062,-1.46756 0,-0.11289 -0.0226,-0.2032 -0.13547,-0.2032 -0.11289,0 -0.24835,0.0677 -0.36124,0.0903 -0.18063,0.0452 -0.54187,0.0903 -0.97085,0.13547 -0.42898,0.0226 -4.92196,0.0226 -5.64445,0.0226 -0.63218,0 -2.05458,-0.0677 -3.2512,-0.0677 -0.33867,0 -0.49671,0.0452 -0.49671,0.2032 0,0.15805 0.13546,0.2032 0.38382,0.2032 0.31609,0 0.69991,0.0226 0.88053,0.0677 0.74507,0.15804 0.92569,0.51929 0.97085,1.28693 0.0452,0.72249 0.0452,1.35467 0.0452,4.7865 z"
         style="font-size:22.5778px;font-family:Trajan;-inkscape-font-specification:Trajan;text-align:center;text-anchor:middle;fill:#a02c2c"
         id="path220959" />
      <path
         d="m -96.623242,153.82332 c 1.196624,0 2.460981,-0.2032 3.589871,-0.92569 1.625601,-1.06116 2.122313,-2.61902 2.122313,-3.92854 0,-2.14489 -0.993423,-3.6576 -3.702759,-5.75734 l -0.632179,-0.47413 c -1.873957,-1.4224 -2.393247,-2.21262 -2.393247,-3.2512 0,-1.35467 1.016001,-2.32552 2.686759,-2.32552 1.467557,0 2.122313,0.67734 2.46098,1.10632 0.474134,0.58702 0.587023,1.28693 0.587023,1.49013 0,0.27093 0.06773,0.4064 0.225778,0.4064 0.180622,0 0.248356,-0.18062 0.248356,-0.67733 0,-1.76107 0.09031,-2.41583 0.09031,-2.70934 0,-0.15804 -0.112889,-0.22578 -0.316089,-0.27093 -0.587023,-0.15805 -1.535291,-0.38383 -3.002848,-0.38383 -3.138314,0 -5.215472,1.78365 -5.215472,4.26721 0,1.8288 0.857956,3.40925 3.341515,5.35094 l 1.038578,0.8128 c 1.873958,1.44498 2.212625,2.50613 2.212625,3.61245 0,1.19662 -0.993423,2.57387 -3.025425,2.57387 -1.399824,0 -2.731914,-0.60961 -3.228626,-2.28036 -0.112889,-0.38383 -0.2032,-0.85796 -0.2032,-1.15147 0,-0.18062 -0.02258,-0.38382 -0.225778,-0.38382 -0.180624,0 -0.248354,0.24835 -0.270934,0.58702 -0.0226,0.36124 -0.11289,1.71591 -0.11289,2.95769 0,0.49671 0.0677,0.6096 0.428979,0.76765 0.970846,0.42898 1.986847,0.58702 3.296359,0.58702 z"
         style="font-size:22.5778px;font-family:Trajan;-inkscape-font-specification:Trajan;text-align:center;text-anchor:middle;fill:#a02c2c"
         id="path220961" />
    </g>
  </g>
</svg>
